<?xml version="1.0" encoding="UTF-8" standalone="no"?>
<svg xmlns="http://www.w3.org/2000/svg" xmlns:xlink="http://www.w3.org/1999/xlink" width="450px" height="450px" viewBox="0 0 450 450" version="1.1">
  <defs>
    <radialGradient id="rg1" gradientUnits="userSpaceOnUse" cy="204.31" cx="365.46" gradientTransform="matrix(1 0 0 .77724 0 45.512)" r="103.82">
      <stop style="stop-color:#008000" offset="0"/>
      <stop style="stop-color:#3c9c3c" offset="1"/>
    </radialGradient>
    <radialGradient id="rg2" gradientUnits="userSpaceOnUse" cy="164.44" cx="377.8" r="72.721">
      <stop style="stop-color:#f2ef06" offset="0"/>
      <stop style="stop-color:#ecc217" offset="1"/>
    </radialGradient>
    <radialGradient id="rg3" gradientUnits="userSpaceOnUse" cy="113.93" cx="537.4" gradientTransform="matrix(1 0 0 .96970 0 3.4524)" r="33.335">
      <stop style="stop-color:#ffffff;stop-opacity:.54610" offset="0"/>
      <stop style="stop-color:#ffffff;stop-opacity:0" offset="1"/>
    </radialGradient>
    <linearGradient id="lg1" y2="297.29" gradientUnits="userSpaceOnUse" x2="332.29" y1="306.93" x1="360.16">
      <stop style="stop-color:#a46a45" offset="0"/>
      <stop style="stop-color:#b37f5e" offset="1"/>
      <stop style="stop-color:#c29477" offset="1"/>
    </linearGradient>
    <filter id="f1" color-interpolation-filters="sRGB">
      <feGaussianBlur stdDeviation="3.242326"/>
    </filter>
    <filter id="f2" color-interpolation-filters="sRGB">
      <feGaussianBlur stdDeviation="3.6067416"/>
    </filter>
    <filter id="f3" color-interpolation-filters="sRGB">
      <feGaussianBlur stdDeviation="1.5080899"/>
    </filter>
  </defs>
  <g transform="translate(-280 -90)scale(1.27)">
    <g>
      <path d="m376.43 173.79c-46.154 76.328-87.618 153.27-82.857 237.14 16.509 0.65652 36.834 9.9004 46.429-5-26.88-90.041 22.968-159.86 49.286-235.71z" style="stroke:#000000;stroke-width:1px;fill:url(#lg1)"/>
      <path style="stroke:#000000;stroke-width:1px;fill:url(#rg1)" d="m381.43 179.51c-18.36 4.72-31.57 17.16-46.43 27.14v-24.286c-4.4939 9.7025-10.847 18.166-10 31.429l-22.143 26.429-3.5714-26.429c-12.159 15.714-6.5617 31.429-8.5714 47.143-3.3333 4.3123-6.6667 2.2332-10 15-32.67-71.43 13.35-88.98 79.28-107.85l-10-2.1429 10.714-7.1429-20 2.8572-17.857 2.8571 9.2857-10-14.286 12.143-21.429 3.5714 4.2857-17.857-12.857 17.143-25.714 15.714c0.7572-69.971 89.741-38.523 115.71-22.143l-7.85-9.29 9.2857-4.2857-16.429 0.71428-11.429-3.5714 6.4286-5.7143-15.714 4.2857-9.2857-6.4286 8.5714-6.4286-18.571 2.1429c26.335-23.128 56.923-4.7018 64.286 26.429l-0.71429-14.286c6.584 3.8332 16.085 6.833 10 14.286 39.36-6.3496 50.631-6.3233 55 29.286l-11.44-7.85-5-12.857v10.714l-7.1429-2.1428-7.86-12.85v9.2857l-20-3.5714c85.426 29.005 67.143 37.411 67.143 99.286l-10.71-21.43 3.57-29.28-6.4286 21.429-6.4286-13.571-2.8572-22.857-2.1428 14.286-11.429-9.2857-3.57-17.86-2.14 12.14-23.57-21.43c31.981 44.196 39.291 61.122 7.8571 102.14l-2.8571-33.571c6.6712-8.2372 10.415-14.917 7.8571-25l-12.857 16.429-2.8571-20c2.4009-5.4562 6.7627-8.9516 5.7143-17.857l-11.429 5.7143z"/>
    </g>
  </g>
</svg>
