<?xml version="1.0" encoding="UTF-8" standalone="no"?>
<svg xmlns="http://www.w3.org/2000/svg" viewBox="0 0 450 450">
<!--
  <path stroke="#000" fill="none" d="M0,0 450,0 450,450 0,450 0,0M204.416 137.978c-23.317 5.994-40.094 21.793-58.966 34.467v-30.843c-5.707 12.322-13.776 23.071-12.7 39.915l-28.122 33.565-4.535-33.565c-15.443 19.957-8.334 39.915-10.886 59.872-4.233 5.476-8.466 2.836-12.7 19.05-41.491-90.716 16.954-113.005 100.685-136.97l-12.7-2.721 13.607-9.072-25.4 3.628-22.678 3.629 11.793-12.7-18.143 15.421-27.216 4.537 5.444-22.679-16.328 21.772-32.657 19.957c.961-88.863 113.97-48.924 146.952-28.122l-9.97-11.798 11.792-5.443-20.865.906-14.515-4.533 8.165-7.258-19.956 5.441-11.794-8.163 10.887-8.165-23.585 2.722c33.445-29.373 72.292-5.972 81.643 33.566l-.908-18.145c8.361 4.868 20.428 8.678 12.7 18.144 49.987-8.065 64.301-8.03 69.85 37.193l-14.53-9.97-6.35-16.328v13.607l-9.07-2.722-9.983-16.32v11.794l-25.4-4.535c108.491 36.836 85.272 47.51 85.272 126.093l-13.602-27.216 4.534-37.186-8.164 27.215-8.164-17.235-3.629-29.029-2.721 18.144-14.515-11.794-4.534-22.682-2.718 15.418-29.934-27.216c40.616 56.129 49.9 77.625 9.979 129.718l-3.629-42.635c8.472-10.461 13.227-18.945 9.979-31.75l-16.329 20.864-3.628-25.4c3.049-6.929 8.589-11.369 7.258-22.678L218.916 177l-14.5-39.022zM198.066 130.713C139.451 227.65 86.791 325.366 92.838 431.881c20.966.834 46.779 12.573 58.965-6.35-34.138-114.352 29.169-203.022 62.593-299.352l-16.33 4.534z"/>
  <path stroke="#000" fill="red" d="m0,0l450,0l0,450l-450,0l0,-450m192.91682,142.47772c-23.317,5.994 -28.59482,17.29327 -47.46683,29.96729l0,-30.843c-5.707,12.32199 -13.776,23.07098 -12.7,39.91499l-28.122,33.565l-4.535,-33.565c-15.443,19.957 -8.334,39.91501 -10.886,59.87201c-4.233,5.476 -8.466,2.836 -12.7,19.04999c-41.491,-90.716 16.95399,-113.00499 100.685,-136.96999l-12.7,-2.721l13.60698,-9.072l-25.39998,3.628l-22.67801,3.62901l11.793,-12.7l-18.14301,15.421l-27.216,4.537l5.444,-22.679l-16.328,21.77199l-32.657,19.95702c0.961,-88.863 113.97,-48.924 146.95199,-28.12199l-9.97,-11.798l11.79201,-5.443l-20.86501,0.906l-14.515,-4.533l8.16502,-7.258l-19.95602,5.441l-11.79399,-8.16299l10.88699,-8.16499l-23.58502,2.722c33.44502,-29.373 72.29202,-5.972 81.64302,33.56599l-0.90799,-18.145c8.36101,4.868 20.42801,8.67799 12.70001,18.144c49.98698,-8.06499 64.30098,-8.03 69.84999,37.19299l-14.53,-9.97l-6.35001,-16.328l0,13.607l-9.07004,-2.722l-9.98297,-16.32001l0,11.79401l-25.39999,-4.535c108.49097,36.83599 85.272,47.50999 85.272,126.09299l-13.60199,-27.216l4.534,-37.18599l-8.164,27.21501l-8.164,-17.235l-3.629,-29.02902l-2.72101,18.14401l-14.51498,-11.79399l-4.534,-22.68201l-2.71802,15.418l-29.93401,-27.216c40.61601,56.12901 49.89998,77.625 9.979,129.71802l-3.62901,-42.63499c8.472,-10.46101 13.22701,-18.94501 9.979,-31.75l-16.32899,20.864l-3.62801,-25.40001c3.04901,-6.929 8.589,-11.36899 7.25801,-22.67798l-14.51601,7.25699c-4.83334,-13.00734 -6.91684,-18.76514 -11.75017,-31.77248m-14.09947,-3.26547c-58.61499,96.937 -106.27534,183.4039 -100.22836,289.91891c20.966,0.83395 46.77901,12.573 58.965,-6.35004c-34.13799,-114.35199 21.66949,-183.77344 55.09349,-280.10344" id="svg_1"/>
-->
  <path fill="red" stroke="#000" d="M0 0h450v450H0V0m192.917 142.478c-23.317 5.994-28.595 17.293-47.467 29.967v-30.843c-5.707 12.322-13.776 23.071-12.7 39.915l-28.122 33.565-4.535-33.565c-15.443 19.957-8.334 39.915-10.886 59.872-4.233 5.476-8.466 2.836-12.7 19.05-41.491-90.716 16.954-113.005 100.685-136.97l-12.7-2.721 13.607-9.072-25.4 3.628-22.678 3.629 11.793-12.7-18.143 15.421-27.216 4.537 5.444-22.679-16.328 21.772-32.657 19.957c.961-88.863 113.97-48.924 146.952-28.122l-9.97-11.798 11.792-5.443-20.865.906-14.515-4.533 8.165-7.258-19.956 5.441-11.794-8.163 10.887-8.165-23.585 2.722c33.445-29.373 72.292-5.972 81.643 33.566l-.908-18.145c8.361 4.868 20.428 8.678 12.7 18.144 49.987-8.065 64.301-8.03 69.85 37.193l-14.53-9.97-6.35-16.328v13.607l-9.07-2.722-9.983-16.32v11.794l-25.4-4.535c108.49 36.836 85.272 47.51 85.272 126.093l-13.602-27.216 4.534-37.186-8.164 27.215-8.164-17.235-3.629-29.029-2.721 18.144-14.515-11.794-4.534-22.682-2.718 15.418-29.934-27.216c40.616 56.129 49.9 77.625 9.979 129.718l-3.63-42.635c8.473-10.46 13.228-18.945 9.98-31.75l-16.329 20.864-3.628-25.4c3.049-6.929 8.589-11.369 7.258-22.678L218.916 177c-4.833-13.007-6.917-18.765-11.75-31.772m-14.1-3.266C134.451 238.9 86.791 325.366 92.838 431.881c20.966.834 46.779 12.573 58.965-6.35-34.138-114.352 21.67-183.773 55.093-280.103"/>
</svg>
