<?xml version="1.0" encoding="UTF-8" standalone="no"?>
<svg xmlns="http://www.w3.org/2000/svg" xmlns:xlink="http://www.w3.org/1999/xlink" viewBox="0 0 800 450" version="1.1">
  <defs>
    <radialGradient id="rg1" gradientUnits="userSpaceOnUse" cy="204.31" cx="365.46" gradientTransform="matrix(1 0 0 .77724 0 45.512)" r="103.82">
      <stop style="stop-color:#008000" offset="0"/>
      <stop style="stop-color:#3c9c3c" offset="1"/>
    </radialGradient>
    <radialGradient id="rg2" gradientUnits="userSpaceOnUse" cy="164.44" cx="377.8" r="72.721">
      <stop style="stop-color:#f2ef06" offset="0"/>
      <stop style="stop-color:#ecc217" offset="1"/>
    </radialGradient>
    <radialGradient id="rg3" gradientUnits="userSpaceOnUse" cy="113.93" cx="537.4" gradientTransform="matrix(1 0 0 .96970 0 3.4524)" r="33.335">
      <stop style="stop-color:#ffffff;stop-opacity:.54610" offset="0"/>
      <stop style="stop-color:#ffffff;stop-opacity:0" offset="1"/>
    </radialGradient>
    <linearGradient id="lg1" y2="297.29" gradientUnits="userSpaceOnUse" x2="332.29" y1="306.93" x1="360.16">
      <stop style="stop-color:#a46a45" offset="0"/>
      <stop style="stop-color:#b37f5e" offset="1"/>
      <stop style="stop-color:#c29477" offset="1"/>
    </linearGradient>
    <filter id="f1" color-interpolation-filters="sRGB">
      <feGaussianBlur stdDeviation="3.242326"/>
    </filter>
    <filter id="f2" color-interpolation-filters="sRGB">
      <feGaussianBlur stdDeviation="3.6067416"/>
    </filter>
    <filter id="f3" color-interpolation-filters="sRGB">
      <feGaussianBlur stdDeviation="1.5080899"/>
    </filter>
  </defs>
  <rect x="0" y="0" width="800" height="370" style="fill:#87CEEB"/>
  <g transform="translate(0 370)">
    <rect x="0" y="0" width="800" height="80" style="fill:rgba(0, 105, 148, .7)"/>
    <ellipse cx="140" cy="50" rx="300" ry="59" style="fill:rgba(255, 255, 255)"/>
    <ellipse cx="120" cy="50" rx="300" ry="60" style="fill:rgba(255, 240, 201)"/>
  </g>
  <g transform="translate(-250 -25)">
    <g>
      <g transform="translate(-94.954 28.284)">
        <path style="stroke-linejoin:round;stroke:#ffeeaa;stroke-linecap:round;stroke-width:2;fill:url(#rg2)" d="m449.52 164.44c0 39.61-32.111 71.721-71.721 71.721s-71.721-32.111-71.721-71.721 32.111-71.721 71.721-71.721 71.721 32.111 71.721 71.721z" transform="translate(164.65 -41.416)"/>
        <path style="filter:url(#f3);fill:url(#rg3)" d="m570.74 113.93c0 17.853-14.925 32.325-33.335 32.325s-33.335-14.472-33.335-32.325 14.925-32.325 33.335-32.325 33.335 14.472 33.335 32.325z" transform="translate(-5.0508 -8.0812)"/>
      </g>
      <path d="m376.43 173.79c-46.154 76.328-87.618 153.27-82.857 237.14 16.509 0.65652 36.834 9.9004 46.429-5-26.88-90.041 22.968-159.86 49.286-235.71z" style="stroke:#000000;stroke-width:1px;fill:url(#lg1)"/>
      <path d="m293.57 385.93 7.1429-5 2.1428 3.2143 7.1429-2.8572 2.5 0.71429 13.571-3.2143 0.71428 2.5 7.4466-1.1452" style="stroke:#000000;stroke-width:1px;fill:none"/>
      <path d="m296.26 362.47 3.3802-2.2475 3.9286 3.9286 10-4.6429 1.4286 3.9286 8.9286-3.9286 1.0714 2.8571 4.6429-1.4286 2.8037 0.60419" style="stroke:#000000;stroke-width:1px;fill:none"/>
      <path d="m300.55 338.08 8.023-1.7857 2.5 4.6429 2.8571-6.0714 3.9286 6.0714 7.1429-3.9286 3.5714 4.2857 4.6429-0.71428" style="stroke:#000000;stroke-width:1px;fill:none"/>
      <path d="m305.95 317.78 4.7663-0.77994 2.1428 2.8571 3.9286-2.5s5 8.9286 6.4286 7.8571c1.4286-1.0714 5.3571-7.5 5.3571-7.5l4.2857 5.3572 2.6051-4.2066" style="stroke:#000000;stroke-width:1px;fill:none"/>
      <path d="m311.23 301.93 7.3434 0.0713 3.9286 2.5 5.3571-3.9286 5.3572 5 4.2857-3.2143 0.24627 5.3127" style="stroke:#000000;stroke-width:1px;fill:none"/>
      <path style="opacity:.48029;filter:url(#f2);stroke:#000000;stroke-width:2;fill:none" d="m376.43 173.79c-46.154 76.328-87.618 153.27-82.857 237.14 16.509 0.65652 36.834 9.9004 46.429-5-26.88-90.041 22.968-159.86 49.286-235.71z"/>
      <g>
        <path style="stroke:#000000;stroke-width:1px;fill:none" d="m318.29 283.65 5.9985 3.3588 4.2857-2.5 3.2143 5.7143 5-3.5714 1.7857 4.6428 4.5026-3.4056"/>
        <path style="stroke:#000000;stroke-width:1px;fill:none" d="m323.69 271.09 4.529-0.51319s-1.4286 2.8571 0 2.8571 7.5-4.6429 7.5-4.6429l-1.4286 5 6.4286-1.0714 5 4.2857h0.35714"/>
        <path style="stroke:#000000;stroke-width:1px;fill:none" d="m332.43 252.48 4.3571 0.59996s0 4.6428 2.5 4.2857c2.5-0.35714 3.9286-0.71428 3.9286-0.71428l5 3.2143h2.8571l-0.18269 5.2501"/>
        <path style="stroke:#000000;stroke-width:1px;fill:none" d="m339.59 238.36 7.1983 0.0778s-2.5 3.9286 0 3.5714c2.5-0.35714 6.7857-1.4286 6.7857-1.4286l0.35714 3.9286 3.9286-1.4286 1.0714 2.5"/>
        <path style="stroke:#000000;stroke-width:1px;fill:none" d="m346.47 225.46 4.9586-0.95441 1.0714 3.5714 6.0714-2.1429 1.0714 3.2143 2.8571-1.4286 0.35714 2.8572 2.5 0.35714"/>
        <path style="stroke:#000000;stroke-width:1px;fill:none" d="m354.02 211.89 5.2681-0.59812s1.4286 5.3572 2.8572 4.6429c1.4286-0.71429 5.7143-1.7857 5.7143-1.7857l1.0714 3.9286 1.7857 0.35714"/>
        <path style="stroke:#000000;stroke-width:1px;fill:none" d="m361.79 198.43h3.2143l5 3.9286 2.5-1.0714 4.9828-0.3629"/>
        <path style="stroke:#000000;stroke-width:1px;fill:url(#rg1)" d="m381.43 179.51c-18.36 4.72-31.57 17.16-46.43 27.14v-24.286c-4.4939 9.7025-10.847 18.166-10 31.429l-22.143 26.429-3.5714-26.429c-12.159 15.714-6.5617 31.429-8.5714 47.143-3.3333 4.3123-6.6667 2.2332-10 15-32.67-71.43 13.35-88.98 79.28-107.85l-10-2.1429 10.714-7.1429-20 2.8572-17.857 2.8571 9.2857-10-14.286 12.143-21.429 3.5714 4.2857-17.857-12.857 17.143-25.714 15.714c0.7572-69.971 89.741-38.523 115.71-22.143l-7.85-9.29 9.2857-4.2857-16.429 0.71428-11.429-3.5714 6.4286-5.7143-15.714 4.2857-9.2857-6.4286 8.5714-6.4286-18.571 2.1429c26.335-23.128 56.923-4.7018 64.286 26.429l-0.71429-14.286c6.584 3.8332 16.085 6.833 10 14.286 39.36-6.3496 50.631-6.3233 55 29.286l-11.44-7.85-5-12.857v10.714l-7.1429-2.1428-7.86-12.85v9.2857l-20-3.5714c85.426 29.005 67.143 37.411 67.143 99.286l-10.71-21.43 3.57-29.28-6.4286 21.429-6.4286-13.571-2.8572-22.857-2.1428 14.286-11.429-9.2857-3.57-17.86-2.14 12.14-23.57-21.43c31.981 44.196 39.291 61.122 7.8571 102.14l-2.8571-33.571c6.6712-8.2372 10.415-14.917 7.8571-25l-12.857 16.429-2.8571-20c2.4009-5.4562 6.7627-8.9516 5.7143-17.857l-11.429 5.7143z"/>
        <path style="opacity:.19713;filter:url(#f1);stroke:#000000;stroke-width:4.5;fill:none" d="m381.43 179.51c-18.36 4.72-31.57 17.16-46.43 27.14v-24.286c-4.4939 9.7025-10.847 18.166-10 31.429l-22.143 26.429-3.5714-26.429c-12.159 15.714-6.5617 31.429-8.5714 47.143-3.3333 4.3123-6.6667 2.2332-10 15-32.67-71.43 13.35-88.98 79.28-107.85l-10-2.1429 10.714-7.1429-20 2.8572-17.857 2.8571 9.2857-10-14.286 12.143-21.429 3.5714 4.2857-17.857-12.857 17.143-25.714 15.714c0.7572-69.971 89.741-38.523 115.71-22.143l-7.85-9.29 9.2857-4.2857-16.429 0.71428-11.429-3.5714 6.4286-5.7143-15.714 4.2857-9.2857-6.4286 8.5714-6.4286-18.571 2.1429c26.335-23.128 56.923-4.7018 64.286 26.429l-0.71429-14.286c6.584 3.8332 16.085 6.833 10 14.286 39.36-6.3496 50.631-6.3233 55 29.286l-11.44-7.85-5-12.857v10.714l-7.1429-2.1428-7.86-12.85v9.2857l-20-3.5714c85.426 29.005 67.143 37.411 67.143 99.286l-10.71-21.43 3.57-29.28-6.4286 21.429-6.4286-13.571-2.8572-22.857-2.1428 14.286-11.429-9.2857-3.57-17.86-2.14 12.14-23.57-21.43c31.981 44.196 39.291 61.122 7.8571 102.14l-2.8571-33.571c6.6712-8.2372 10.415-14.917 7.8571-25l-12.857 16.429-2.8571-20c2.4009-5.4562 6.7627-8.9516 5.7143-17.857l-11.429 5.7143z" transform="matrix(.97135 0 0 .97135 10.47 5.853)"/>
      </g>
      <path d="m290.42 415.97c-6.2284-2.6775-5.0725-10.524-7.0711-16.162 2.4543 4.2669 3.6799 10.991 7.8287 11.869-1.6233-2.9058-0.76297-5.3977 0.43111-7.8339-0.33108 3.4252 1.1126 6.0897 4.1146 8.0865 1.0322-1.4178 1.8183-2.9833 0.50507-5.8084 1.3832-0.1729 5.6526 3.7444 3.283 5.5558-1.2038 0.92022-5.2324 4.1886-5.2324 4.1886-4.5808-0.19291 1.958-0.3206-3.859 0.1046z" style="stroke:#000000;stroke-width:1px;fill:#008000"/>
      <path style="stroke:#000000;stroke-width:1px;fill:#008000" d="m338.45 410.97c-6.2284-2.6775-5.0725-10.524-7.0711-16.162 2.4543 4.2669 3.6799 10.991 7.8287 11.869-1.6233-2.9058-0.76297-5.3977 0.43111-7.8339-0.33108 3.4252 1.1126 6.0897 4.1146 8.0865 1.0322-1.4178 1.8183-2.9833 0.50507-5.8084 1.3832-0.1729 5.6526 3.7444 3.283 5.5558-1.2038 0.92022-5.2324 4.1886-5.2324 4.1886-4.5808-0.19291 1.958-0.3206-3.859 0.1046z"/>
      <path d="m320.46 418.11c6.2284-2.6775 5.0725-10.524 7.0711-16.162-2.4543 4.2669-3.6799 10.991-7.8287 11.869 1.6233-2.9058 0.76297-5.3977-0.43111-7.8339 0.33108 3.4252-1.1126 6.0897-4.1146 8.0865-1.0322-1.4178-1.8183-2.9833-0.50507-5.8084-1.3832-0.1729-5.6526 3.7444-3.283 5.5558 1.2038 0.92022 5.2324 4.1886 5.2324 4.1886 4.5808-0.19291-1.958-0.3206 3.859 0.1046z" style="stroke:#000000;stroke-width:1px;fill:#008000"/>
    </g>
  </g>
  <g transform="translate(250 130)">
    <text x="110" y="0" style="fill: white; font-family: &quot;SF Pro Text&quot;, &quot;Helvetica Neue&quot;, Helvetica, Arial, sans-serif; font-size: 50px">Welcome to</text>
    <text x="0" y="120" style="fill: white; font-family: &quot;SF Pro Text&quot;, &quot;Helvetica Neue&quot;, Helvetica, Arial, sans-serif; font-size: 80px">CodeParadise</text>
    <text x="200" y="270" style="fill: white; font-family: &quot;SF Pro Text&quot;, &quot;Helvetica Neue&quot;, Helvetica, Arial, sans-serif; font-size: 12px">Press &lt;Left&gt; or &lt;Backspace&gt; to go to previous slide.</text>
    <text x="200" y="285" style="fill: white; font-family: &quot;SF Pro Text&quot;, &quot;Helvetica Neue&quot;, Helvetica, Arial, sans-serif; font-size: 12px">Press &lt;Right&gt; or &lt;Space&gt; to go to next slide.</text>
  </g>
</svg>
